<?xml version="1.0" encoding="UTF-8"?>
<!DOCTYPE svg PUBLIC "-//W3C//DTD SVG 1.1//EN" "http://www.w3.org/Graphics/SVG/1.1/DTD/svg11.dtd">
<svg xmlns="http://www.w3.org/2000/svg" version="1.1" width="1183px" height="1182px" style="shape-rendering:geometricPrecision; text-rendering:geometricPrecision; image-rendering:optimizeQuality; fill-rule:evenodd; clip-rule:evenodd" xmlns:xlink="http://www.w3.org/1999/xlink">
<g><path style="opacity:0.998" fill="#23232f" d="M 1079.5,1181.5 C 753.5,1181.5 427.5,1181.5 101.5,1181.5C 60.6824,1178.68 30.5158,1159.35 11,1123.5C 5.21632,1111.48 1.88299,1098.81 1,1085.5C 0.333333,755.833 0.333333,426.167 1,96.5C 5.62235,54.5647 27.1223,25.0647 65.5,8C 75.8214,4.08632 86.488,1.75298 97.5,1C 426.5,0.333333 755.5,0.333333 1084.5,1C 1124.89,5.07366 1154.06,25.2403 1172,61.5C 1175.88,70.4835 1178.55,79.8169 1180,89.5C 1180.67,423.5 1180.67,757.5 1180,1091.5C 1171.48,1138.02 1144.32,1167.18 1098.5,1179C 1092.02,1179.86 1085.69,1180.7 1079.5,1181.5 Z"/></g>
<g><path style="opacity:1" fill="#127953" d="M 1149.5,372.5 C 1149.5,358.5 1149.5,344.5 1149.5,330.5C 987.097,330.168 824.763,330.502 662.5,331.5C 824.83,329.501 987.497,328.835 1150.5,329.5C 1150.83,344.01 1150.5,358.343 1149.5,372.5 Z"/></g>
<g><path style="opacity:1" fill="#00d579" d="M 165.5,329.5 C 312.833,329.5 460.167,329.5 607.5,329.5C 599.929,355.805 591.929,381.972 583.5,408C 443.167,408.333 302.833,408.667 162.5,409C 129.317,417.515 110.15,438.681 105,472.5C 101.526,496.591 106.526,518.591 120,538.5C 132.396,553.449 148.229,562.282 167.5,565C 252.167,565.333 336.833,565.667 421.5,566C 485.41,574.03 528.577,608.197 551,668.5C 566.096,722.431 555.762,770.764 520,813.5C 493.873,841.48 461.707,857.647 423.5,862C 319.167,862.5 214.834,862.667 110.5,862.5C 118.332,836.503 126.666,810.67 135.5,785C 230.167,784.667 324.833,784.333 419.5,784C 452.227,777.606 472.06,758.106 479,725.5C 482.333,698.158 473.5,675.658 452.5,658C 442.326,650.606 430.992,645.94 418.5,644C 333.167,643.667 247.833,643.333 162.5,643C 102.806,635.084 60.973,603.584 37,548.5C 24.5372,511.255 23.2038,473.588 33,435.5C 55.7426,373.246 99.9092,337.912 165.5,329.5 Z"/></g>
<g><path style="opacity:1" fill="#00d679" d="M 1149.5,372.5 C 1145.51,471.354 1102.51,547.854 1020.5,602C 980.319,626.632 936.652,640.298 889.5,643C 862.167,643.333 834.833,643.667 807.5,644C 739.16,653.692 689.993,689.525 660,751.5C 655.486,762.041 651.986,772.875 649.5,784C 780.168,784.167 910.835,784.667 1041.5,785.5C 1032.43,811.053 1023.76,836.72 1015.5,862.5C 866.167,862.5 716.833,862.5 567.5,862.5C 558.322,769.152 587.989,690.985 656.5,628C 698.564,592.188 747.231,571.522 802.5,566C 834.854,565.915 867.188,565.248 899.5,564C 959.893,554.739 1007.06,524.905 1041,474.5C 1053.85,454.128 1062.68,432.128 1067.5,408.5C 924.833,408.5 782.167,408.5 639.5,408.5C 646.563,382.646 654.23,356.979 662.5,331.5C 824.763,330.502 987.097,330.168 1149.5,330.5C 1149.5,344.5 1149.5,358.5 1149.5,372.5 Z"/></g>
<g><path style="opacity:1" fill="#00d579" d="M 934.5,897.5 C 947.209,897.152 959.875,897.652 972.5,899C 995.582,905.666 1005.08,920.832 1001,944.5C 998.311,966.014 994.645,987.347 990,1008.5C 981.394,1025.76 967.56,1036.26 948.5,1040C 935.871,1041.51 923.205,1041.85 910.5,1041C 885.614,1036.37 874.447,1021.53 877,996.5C 880.612,978.219 883.945,959.886 887,941.5C 890.234,926.866 898.067,915.366 910.5,907C 918.186,902.722 926.186,899.556 934.5,897.5 Z"/></g>
<g><path style="opacity:1" fill="#01d478" d="M 657.5,898.5 C 679.836,898.333 702.169,898.5 724.5,899C 737.748,899.611 747.248,905.778 753,917.5C 753.407,920.682 753.907,923.849 754.5,927C 752.693,940.063 749.859,952.896 746,965.5C 737.738,983.564 723.572,993.064 703.5,994C 691.505,994.5 679.505,994.667 667.5,994.5C 664.291,1009.88 660.958,1025.21 657.5,1040.5C 646.5,1040.5 635.5,1040.5 624.5,1040.5C 635.495,993.177 646.495,945.844 657.5,898.5 Z"/></g>
<g><path style="opacity:1" fill="#01d478" d="M 871.5,1038.5 C 859.011,1039.5 846.344,1039.83 833.5,1039.5C 824.972,1024.28 816.305,1009.11 807.5,994C 799.841,993.5 792.174,993.334 784.5,993.5C 781.371,1009.14 778.371,1024.81 775.5,1040.5C 764.5,1040.5 753.5,1040.5 742.5,1040.5C 751.909,993.122 761.576,945.789 771.5,898.5C 794.836,898.333 818.169,898.5 841.5,899C 852.317,899.734 861.15,904.234 868,912.5C 870.851,917.096 872.018,922.096 871.5,927.5C 870.534,939.298 868.7,950.965 866,962.5C 862.077,974.419 854.577,983.252 843.5,989C 852.977,1005.46 862.31,1021.96 871.5,1038.5 Z"/></g>
<g><path style="opacity:1" fill="#23242f" d="M 939.5,924.5 C 948.615,923.6 957.282,925.1 965.5,929C 966.787,930.41 967.954,931.91 969,933.5C 969.332,938.854 968.999,944.187 968,949.5C 965.088,965.795 962.422,982.128 960,998.5C 957.758,1006.41 952.591,1011.24 944.5,1013C 936.5,1013.67 928.5,1013.67 920.5,1013C 913.8,1011.47 910.134,1007.3 909.5,1000.5C 912.491,983.532 915.325,966.532 918,949.5C 918.69,935.326 925.857,926.993 939.5,924.5 Z"/></g>
<g><path style="opacity:1" fill="#23242f" d="M 682.5,927.5 C 694.909,927.061 707.242,927.561 719.5,929C 720.804,929.804 721.471,930.971 721.5,932.5C 719.562,941.146 717.729,949.812 716,958.5C 713.74,963.942 709.574,966.442 703.5,966C 693.839,966.5 684.172,966.666 674.5,966.5C 677.462,953.57 680.129,940.57 682.5,927.5 Z"/></g>
<g><path style="opacity:1" fill="#23232f" d="M 797.5,927.5 C 809.838,927.333 822.171,927.5 834.5,928C 839.115,929.077 840.615,931.91 839,936.5C 837.014,944.073 835.348,951.739 834,959.5C 833.215,961.286 832.049,962.786 830.5,964C 817.24,965.444 803.907,965.944 790.5,965.5C 793.091,952.88 795.424,940.214 797.5,927.5 Z"/></g>
<g><path style="opacity:1" fill="#117d54" d="M 871.5,1038.5 C 872.043,1038.56 872.376,1038.89 872.5,1039.5C 859.339,1040.83 846.339,1040.83 833.5,1039.5C 846.344,1039.83 859.011,1039.5 871.5,1038.5 Z"/></g>
</svg>
